Coordinates
version=1
nRows=24
nColumns=22
inDegrees=yes

Units are S.I. units (second, meters, Newtons, ...)
If the header above contains a line with 'inDegrees', this indicates whether rotational values are in degrees (yes) or radians (no).

endheader
time	pelvis_tilt	pelvis_list	pelvis_rotation	pelvis_tx	pelvis_ty	pelvis_tz	hip_flexion_r	hip_adduction_r	hip_rotation_r	knee_angle_r	ankle_angle_r	subtalar_angle_r	hip_flexion_l	hip_adduction_l	hip_rotation_l	knee_angle_l	ankle_angle_l	subtalar_angle_l	lumbar_extension	lumbar_bending	lumbar_rotation
      4.19000000	      0.72354234	     -5.41927784	    -96.91632861	      0.35897452	      0.91163145	      0.88607177	      7.27791900	     -2.61380013	      1.76002944	    -24.09798703	     15.85872363	     -4.13464176	      4.32366281	      0.59129005	     -6.74724076	    -20.34390223	     12.35638921	     -4.87455383	    -10.38086538	     -2.50357889	      3.73481688
      4.20000000	      0.96084486	     -5.51076183	    -96.59792146	      0.35792996	      0.91151633	      0.88949492	      6.79669614	     -2.87002532	      1.37272263	    -23.89353524	     15.83192975	     -4.04195626	      3.85848988	      0.78228628	     -6.66048473	    -20.03795011	     12.46434170	     -4.68345487	    -10.26873415	     -2.81112542	      3.67589874
      4.21000000	      1.21282047	     -5.55746556	    -96.28351335	      0.35682430	      0.91132399	      0.89286275	      6.36380889	     -3.13035668	      0.94619776	    -23.69159920	     15.93378378	     -4.01133649	      3.44278923	      0.98180430	     -6.53825829	    -19.72727823	     12.56762397	     -4.52424733	    -10.10214434	     -3.13009670	      3.63541929
      4.22000000	      1.43918912	     -5.62631763	    -95.99550063	      0.35562852	      0.91119565	      0.89618197	      5.88241287	     -3.35319835	      0.50973814	    -23.44264179	     16.03928559	     -3.99674045	      2.99748552	      1.14560898	     -6.44701660	    -19.41584771	     12.66656787	     -4.32894948	     -9.96680075	     -3.42379478	      3.63480182
      4.23000000	      1.65641370	     -5.67904445	    -95.72903714	      0.35437417	      0.91106255	      0.89940584	      5.41488220	     -3.54859809	      0.09014889	    -23.17388205	     16.20877402	     -4.02438993	      2.58511202	      1.29209451	     -6.35760496	    -19.12942416	     12.77246054	     -4.13509291	     -9.82159087	     -3.70594501	      3.66852688
      4.24000000	      1.82956601	     -5.74296911	    -95.49740577	      0.35305253	      0.91100850	      0.90256125	      4.91850704	     -3.68242702	     -0.30256998	    -22.86453048	     16.37150964	     -4.09263134	      2.14970432	      1.38297468	     -6.31475963	    -18.82953787	     12.84522254	     -3.90505086	     -9.69778844	     -3.93297011	      3.71275635
      4.25000000	      1.98197111	     -5.79661845	    -95.29693329	      0.35170285	      0.91097376	      0.90559619	      4.43989897	     -3.78251607	     -0.66381763	    -22.54832956	     16.55828642	     -4.18794198	      1.74496918	      1.44553024	     -6.29915821	    -18.55865307	     12.93113996	     -3.66262260	     -9.57536256	     -4.13102998	      3.79080816
      4.26000000	      2.09887690	     -5.84727543	    -95.12973887	      0.35031119	      0.91099050	      0.90852083	      3.96304068	     -3.83670905	     -0.99726115	    -22.21235978	     16.73746383	     -4.29768809	      1.34871278	      1.46407719	     -6.31539479	    -18.29394337	     12.99399310	     -3.39529743	     -9.46199456	     -4.28353007	      3.88171868
      4.27000000	      2.18595318	     -5.88454029	    -94.99442222	      0.34888302	      0.91102652	      0.91130118	      3.51068682	     -3.85373028	     -1.30594643	    -21.87169152	     16.91734510	     -4.39208198	      0.98627313	      1.44542676	     -6.35132114	    -18.05482738	     13.04826631	     -3.11774444	     -9.34978615	     -4.39956762	      3.99481403
      4.28000000	      2.24843169	     -5.90084849	    -94.88239348	      0.34744058	      0.91106505	      0.91394030	      3.09147493	     -3.84287778	     -1.58964291	    -21.52882652	     17.08217883	     -4.44812367	      0.66809431	      1.39661717	     -6.40170760	    -17.84416316	     13.09381608	     -2.84960751	     -9.22946935	     -4.48248225	      4.11734254
      4.29000000	      2.28671204	     -5.90029929	    -94.79200971	      0.34597249	      0.91110785	      0.91644889	      2.70083385	     -3.80651652	     -1.85809612	    -21.18750166	     17.21878612	     -4.45952113	      0.38145219	      1.32011816	     -6.45816669	    -17.64415217	     13.12442662	     -2.58097028	     -9.10488218	     -4.53761674	      4.24372228
      4.30000000	      2.31179618	     -5.87885009	    -94.71128212	      0.34451094	      0.91112631	      0.91882774	      2.34698835	     -3.75905293	     -2.11246522	    -20.85575237	     17.34865013	     -4.42405336	      0.14233266	      1.22935316	     -6.51190118	    -17.47719024	     13.16927574	     -2.34987017	     -8.97184857	     -4.57524311	      4.36500690
      4.31000000	      2.32295723	     -5.84244760	    -94.63194864	      0.34306029	      0.91112313	      0.92108727	      2.01946338	     -3.69775057	     -2.35535448	    -20.53059294	     17.47868053	     -4.35913900	     -0.05783531	      1.12428772	     -6.55669503	    -17.33727465	     13.22617897	     -2.15730688	     -8.83637998	     -4.59637264	      4.47717870
      4.32000000	      2.32083642	     -5.79581430	    -94.55633550	      0.34161427	      0.91110177	      0.92324633	      1.71696390	     -3.62287928	     -2.58777083	    -20.22019780	     17.59697016	     -4.27427428	     -0.23814905	      1.00798369	     -6.58708983	    -17.20124104	     13.27677324	     -1.98157861	     -8.70250292	     -4.60416372	      4.57466041
      4.33000000	      2.31292769	     -5.73618002	    -94.47300814	      0.34019585	      0.91104317	      0.92529363	      1.43791700	     -3.54028507	     -2.81137888	    -19.91501447	     17.72433168	     -4.19862171	     -0.37658804	      0.88684818	     -6.60251593	    -17.10054703	     13.34990804	     -1.84760705	     -8.56831077	     -4.60772407	      4.65457050
      4.34000000	      2.30163860	     -5.64106554	    -94.39793860	      0.33878894	      0.91090954	      0.92722487	      1.22003788	     -3.44614700	     -2.98576575	    -19.63399242	     17.89985698	     -4.15509086	     -0.45961426	      0.76379921	     -6.60782034	    -17.01526108	     13.40740737	     -1.78402344	     -8.40450214	     -4.60795558	      4.72817054
      4.35000000	      2.28314165	     -5.59932953	    -94.28116621	      0.33748345	      0.91085273	      0.92910872	      0.92016022	     -3.35412937	     -3.23906190	    -19.31324918	     17.97711001	     -4.10130502	     -0.58842771	      0.64056041	     -6.57832073	    -16.93965369	     13.50203470	     -1.64612835	     -8.31386297	     -4.59995656	      4.75778098
      4.36000000	      2.27424762	     -5.49959772	    -94.19047548	      0.33618597	      0.91068307	      0.93086838	      0.70926758	     -3.25787936	     -3.39815958	    -19.01388356	     18.15023824	     -4.07628049	     -0.63897780	      0.52825632	     -6.56268195	    -16.87557392	     13.55612061	     -1.59199040	     -8.16291300	     -4.60226033	      4.79790264
      4.37000000	      2.25967181	     -5.41799542	    -94.07076362	      0.33498265	      0.91053509	      0.93254811	      0.46393350	     -3.15769917	     -3.61095248	    -18.68215947	     18.27035009	     -4.07066478	     -0.69029256	      0.41399749	     -6.51136986	    -16.83141661	     13.63870319	     -1.51724264	     -8.04476626	     -4.59581421	      4.79556666
      4.38000000	      2.25629491	     -5.34366306	    -93.94582794	      0.33385904	      0.91039521	      0.93413070	      0.21462282	     -3.07213735	     -3.85154497	    -18.34154272	     18.34620902	     -4.08926056	     -0.73590839	      0.32005589	     -6.43792625	    -16.79567755	     13.70633466	     -1.42440292	     -7.94568525	     -4.60442160	      4.80243640
      4.39000000	      2.26491021	     -5.23370362	    -93.83871714	      0.33277643	      0.91019464	      0.93561612	      0.01654288	     -2.99027694	     -4.01198288	    -18.00259712	     18.47679995	     -4.10172044	     -0.73797593	      0.23865722	     -6.39189003	    -16.75509755	     13.74533554	     -1.37470806	     -7.80756234	     -4.61976079	      4.79682660
      4.40000000	      2.26774499	     -5.13847417	    -93.70094569	      0.33180490	      0.91002206	      0.93700532	     -0.19873959	     -2.90873338	     -4.25649507	    -17.65449747	     18.54402771	     -4.14912867	     -0.73430933	      0.15704385	     -6.29154631	    -16.73629069	     13.80233789	     -1.29207683	     -7.70270883	     -4.62847013	      4.77417109
      4.41000000	      2.28487658	     -5.02215062	    -93.58393373	      0.33087550	      0.90981888	      0.93831896	     -0.37295364	     -2.83900778	     -4.41815466	    -17.32185102	     18.64608886	     -4.17499857	     -0.70834118	      0.09191741	     -6.23115215	    -16.70582182	     13.82940717	     -1.24091822	     -7.57249300	     -4.64957427	      4.75923757
      4.42000000	      2.29610090	     -4.91084611	    -93.44873449	      0.33003614	      0.90963292	      0.93955946	     -0.54240690	     -2.76843697	     -4.62208817	    -17.00170587	     18.71230047	     -4.21379949	     -0.67522576	      0.02501495	     -6.14220507	    -16.68495723	     13.86529607	     -1.17501181	     -7.45667216	     -4.66327625	      4.73733943
